<svg width="154" height="19" viewBox="0 0 154 19" fill="none" xmlns="http://www.w3.org/2000/svg">
<path d="M17.2803 0.33382L11.8282 10.1259L6.34535 0.33382H0V14.2709H4.34317L4.31237 6.09224V4.39531L5.11324 5.98097L9.82605 14.2709H13.7996L18.5432 5.98097L19.3133 4.42313V14.2709H23.6256V0.33382H17.2803Z" fill="url(#paint0_linear_37142_1417)"/>
<path d="M45.9395 10.7379C44.9846 10.7379 44.5226 10.3485 44.5226 9.62518V6.17569C44.5226 2.30893 41.3499 0 35.9286 0C30.6306 0 27.2423 2.14202 27.2423 5.4246V5.50805H31.7395V5.4246C31.7395 4.28404 33.2488 3.58858 35.8978 3.58858C38.4237 3.58858 39.779 4.25622 40.0254 5.64714L32.4171 6.39824C28.9672 6.73206 27.1191 8.12299 27.1191 10.3763C27.1191 13.0469 29.6757 14.6047 34.0189 14.6047C36.8835 14.6047 39.1013 13.937 40.6722 12.6018C41.3807 13.6867 42.7976 14.2709 44.6766 14.2709H47.2948V10.7379H45.9395ZM34.3269 11.3777C32.5095 11.3777 31.5855 11.0161 31.5855 10.265C31.5855 9.59736 32.2323 9.23572 33.5876 9.09663L40.0562 8.42899V9.37482C39.1321 10.5988 36.9451 11.3777 34.3269 11.3777Z" fill="url(#paint1_linear_37142_1417)"/>
<path d="M59.2407 0C57.2077 0 55.4212 0.556368 54.0351 1.53001L53.9119 0.33382H49.7535V19H54.2199V13.2416C55.5752 14.1318 57.2693 14.6047 59.2407 14.6047C64.6928 14.6047 68.2043 11.7672 68.2043 7.42753V7.14934C68.2043 2.80966 64.7236 0 59.2407 0ZM63.5839 7.42753C63.5839 9.653 61.7973 10.9326 58.8095 10.9326C56.8689 10.9326 55.144 10.3206 54.2199 9.37482V5.20205C55.1132 4.25622 56.8381 3.67203 58.8095 3.67203C61.8281 3.67203 63.5839 4.95168 63.5839 7.14934V7.42753Z" fill="url(#paint2_linear_37142_1417)"/>
<path d="M83.512 7.14934L89.6109 0.918009V0.33382H84.5285L79.4768 5.50805H76.0886V0.33382H71.6222V14.2709H76.0886V8.98536H79.6617L84.9597 14.2709H89.9497V13.6867L83.512 7.14934Z" fill="url(#paint3_linear_37142_1417)"/>
<path d="M108.725 7.17716C109.926 6.59297 110.573 5.67496 110.573 4.47877V4.20059C110.573 1.72474 108.232 0.33382 104.073 0.33382H92.7689V14.2709H104.536C108.663 14.2709 110.973 12.8799 110.973 10.3485V10.0703C110.973 8.73499 110.203 7.76135 108.725 7.17716ZM103.765 3.28258C105.213 3.28258 105.952 3.64422 105.952 4.39531V4.6735C105.952 5.4246 105.213 5.84187 103.765 5.84187H97.2353V3.28258H103.765ZM106.384 10.1259C106.384 10.9048 105.644 11.3221 104.197 11.3221H97.2353V8.67936H104.197C105.614 8.67936 106.384 9.09663 106.384 9.84773V10.1259Z" fill="url(#paint4_linear_37142_1417)"/>
<path d="M114.638 14.2709H118.673L127.821 5.22987V14.2709H132.103V0.33382H128.068L118.919 9.37482V0.33382H114.638V14.2709Z" fill="url(#paint5_linear_37142_1417)"/>
<path d="M151.659 7.20498C152.891 6.53733 153.569 5.61933 153.569 4.47877V4.28404C153.569 1.55783 150.458 0 144.975 0C138.783 0 135.672 2.05856 135.672 6.12006V6.28697H139.985V6.12006C139.985 4.08931 141.34 3.28258 144.759 3.28258C147.501 3.28258 148.979 3.69985 148.979 4.50659V4.6735C148.979 5.4246 148.24 5.7306 146.607 5.7306H142.326V8.79063H146.915C148.61 8.79063 149.349 9.12445 149.349 9.84773V10.0146C149.349 10.877 147.901 11.3499 145.16 11.3499C141.525 11.3499 139.985 10.4876 139.985 8.51244V8.34553H135.672V8.51244C135.672 12.6852 138.691 14.6047 145.129 14.6047C150.92 14.6047 154 13.1303 154 10.3485V10.1537C154 8.87408 153.168 7.8448 151.659 7.20498Z" fill="url(#paint6_linear_37142_1417)"/>
<defs>
<linearGradient id="paint0_linear_37142_1417" x1="5.38461e-07" y1="8.94117" x2="154" y2="8.94117" gradientUnits="userSpaceOnUse">
<stop stop-color="#D13980"/>
<stop offset="1" stop-color="#EB4F98"/>
</linearGradient>
<linearGradient id="paint1_linear_37142_1417" x1="5.38461e-07" y1="8.94117" x2="154" y2="8.94117" gradientUnits="userSpaceOnUse">
<stop stop-color="#D13980"/>
<stop offset="1" stop-color="#EB4F98"/>
</linearGradient>
<linearGradient id="paint2_linear_37142_1417" x1="5.38461e-07" y1="8.94117" x2="154" y2="8.94117" gradientUnits="userSpaceOnUse">
<stop stop-color="#D13980"/>
<stop offset="1" stop-color="#EB4F98"/>
</linearGradient>
<linearGradient id="paint3_linear_37142_1417" x1="5.38461e-07" y1="8.94117" x2="154" y2="8.94117" gradientUnits="userSpaceOnUse">
<stop stop-color="#D13980"/>
<stop offset="1" stop-color="#EB4F98"/>
</linearGradient>
<linearGradient id="paint4_linear_37142_1417" x1="5.38461e-07" y1="8.94117" x2="154" y2="8.94117" gradientUnits="userSpaceOnUse">
<stop stop-color="#D13980"/>
<stop offset="1" stop-color="#EB4F98"/>
</linearGradient>
<linearGradient id="paint5_linear_37142_1417" x1="5.38461e-07" y1="8.94117" x2="154" y2="8.94117" gradientUnits="userSpaceOnUse">
<stop stop-color="#D13980"/>
<stop offset="1" stop-color="#EB4F98"/>
</linearGradient>
<linearGradient id="paint6_linear_37142_1417" x1="5.38461e-07" y1="8.94117" x2="154" y2="8.94117" gradientUnits="userSpaceOnUse">
<stop stop-color="#D13980"/>
<stop offset="1" stop-color="#EB4F98"/>
</linearGradient>
</defs>
</svg>
